<!DOCTYPE svg PUBLIC "-//W3C//DTD SVG 1.1//EN" "http://www.w3.org/Graphics/SVG/1.1/DTD/svg11.dtd">
<!-- Uploaded to: SVG Repo, www.svgrepo.com, Transformed by: SVG Repo Mixer Tools -->
<svg fill="#F7B600" width="64px" height="64px" viewBox="0 0 32 32" id="icon" xmlns="http://www.w3.org/2000/svg">
<g id="SVGRepo_bgCarrier" stroke-width="0"/>
<g id="SVGRepo_tracerCarrier" stroke-linecap="round" stroke-linejoin="round"/>
<g id="SVGRepo_iconCarrier"> <defs> <style> .cls-1 { fill: none; } </style> </defs> <polygon points="14 8 10 8 10 4 8 4 8 8 4 8 4 10 8 10 8 14 10 14 10 10 14 10 14 8"/> <rect x="4" y="19" width="10" height="2"/> <rect x="4" y="24" width="10" height="2"/> <rect x="18" y="8" width="10" height="2"/> <polygon points="24.41 22 28 18.41 26.59 17 23 20.59 19.41 17 18 18.41 21.59 22 18 25.59 19.41 27 23 23.41 26.59 27 28 25.59 24.41 22"/> <rect id="_Transparent_Rectangle_" data-name="&lt;Transparent Rectangle&gt;" class="cls-1" width="32" height="32"/> </g>
</svg>