<!DOCTYPE svg PUBLIC "-//W3C//DTD SVG 1.1//EN" "http://www.w3.org/Graphics/SVG/1.1/DTD/svg11.dtd">
<!-- Uploaded to: SVG Repo, www.svgrepo.com, Transformed by: SVG Repo Mixer Tools -->
<svg fill="#F7B600" height="64px" width="64px" version="1.1" id="Layer_1" xmlns="http://www.w3.org/2000/svg" xmlns:xlink="http://www.w3.org/1999/xlink" viewBox="0 0 512.016 512.016" xml:space="preserve">
<g id="SVGRepo_bgCarrier" stroke-width="0"/>
<g id="SVGRepo_tracerCarrier" stroke-linecap="round" stroke-linejoin="round"/>
<g id="SVGRepo_iconCarrier"> <g> <g> <path d="M511.24,70.843c-0.149-0.405-0.405-0.725-0.597-1.109c-0.405-0.747-0.853-1.472-1.408-2.112 c-0.32-0.363-0.683-0.661-1.045-0.981c-0.597-0.512-1.259-0.96-1.963-1.323c-0.448-0.235-0.875-0.448-1.365-0.619 c-0.277-0.107-0.512-0.299-0.811-0.363l-245.333-64c-1.749-0.448-3.627-0.448-5.376,0l-245.333,64 c-0.32,0.107-0.555,0.277-0.832,0.384c-0.491,0.171-0.917,0.384-1.365,0.619c-0.725,0.363-1.365,0.811-1.963,1.323 c-0.363,0.32-0.725,0.619-1.045,0.96c-0.576,0.64-1.003,1.344-1.408,2.112c-0.213,0.384-0.448,0.704-0.619,1.109 c-0.469,1.195-0.768,2.475-0.768,3.84v426.667c0,5.888,4.779,10.667,10.667,10.667h490.667c5.888,0,10.667-4.779,10.667-10.667 V74.683C512.008,73.317,511.709,72.037,511.24,70.843z M256.008,21.691l162.219,42.325H93.789L256.008,21.691z M128.008,490.683 h-64v-64h64V490.683z M64.008,405.349v-42.667h42.667v42.667H64.008z M213.341,490.683h-64v-42.667h64V490.683z M490.675,490.683 H341.341v-64h149.333V490.683z M490.675,405.349H384.008v-42.667h106.667V405.349z M490.675,341.349H373.341 c-5.888,0-10.667,4.779-10.667,10.667v53.333h-32c-5.888,0-10.667,4.779-10.667,10.667v74.667h-85.333v-53.333 c0-5.888-4.779-10.667-10.667-10.667h-74.667v-10.667c0-5.888-4.779-10.667-10.667-10.667h-10.667v-53.333 c0-5.888-4.779-10.667-10.667-10.667h-64c-5.888,0-10.667,4.779-10.667,10.667v138.667H21.341V277.349h469.333V341.349z M490.675,256.016H21.341v-42.667h469.333V256.016z M490.675,192.016H21.341v-42.667h469.333V192.016z M490.675,128.016H21.341 V85.349h469.333V128.016z"/> </g> </g> </g>
</svg>