<!DOCTYPE svg PUBLIC "-//W3C//DTD SVG 1.1//EN" "http://www.w3.org/Graphics/SVG/1.1/DTD/svg11.dtd">
<!-- Uploaded to: SVG Repo, www.svgrepo.com, Transformed by: SVG Repo Mixer Tools -->
<svg fill="#F7B600" height="64px" width="64px" version="1.1" id="Layer_1" xmlns="http://www.w3.org/2000/svg" xmlns:xlink="http://www.w3.org/1999/xlink" viewBox="0 0 508 508" xml:space="preserve">
<g id="SVGRepo_bgCarrier" stroke-width="0"/>
<g id="SVGRepo_tracerCarrier" stroke-linecap="round" stroke-linejoin="round"/>
<g id="SVGRepo_iconCarrier"> <g> <g> <path d="M371.712,260.7c-1.5-7.2-6.1-13-13.9-17.5c-7.7-4.4-17.5-6.7-29.4-6.7c-11.9,0-21,1.9-27.3,5.8 c-6.3,3.9-11.4,10-15.1,18.3h-30.844c2.629-4.975,8.706-10.541,18.044-16.7l-23.5-11.1c-13.2,8.5-21.2,17.8-24,27.8h-15.2v12.6 h14.5c1.5,7.6,6.2,13.7,14,18.2c7.8,4.6,17.6,6.8,29.6,6.8s21.2-2,27.7-6.1c6.5-4.1,11.7-10.4,15.6-19h30 c-2.1,4.3-6.3,8.9-12.5,13.9l24.6,10c9.6-7.8,15.3-15.7,17.3-23.7h10.6v-12.6H371.712z M266.913,279.4c-6.4,0-10.7-2-12.9-6.1 h25.6C277.712,277.2,272.812,279.4,266.913,279.4z M318.612,260.7c2.9-3.4,7.1-5.1,12.7-5.1c5.6,0,9.4,1.7,11.5,5.1H318.612z"/> </g> </g> <g> <g> <path d="M450.913,0h-102.8c-7.8,0-14.1,6.3-14.1,14.1c0,7.8,6.3,14.1,14.1,14.1h68.7L268.113,177l-54.3-54.3 c-5.5-5.5-14.4-5.5-20,0l-146.7,146.7c-5.5,5.5-5.5,14.4,0,20c4.8,4.8,15.4,4.5,20,0l136.7-136.7l36.1,36.1 c-59.3,11.4-99.5,40.7-99.5,76.9v150.8c0,51.3,68.5,91.5,155.8,91.5c87.4,0,155.8-40.2,155.8-91.5V265.6 c0-45.9-64.4-80.7-150.7-82l135.5-135.4v68.7c0,7.8,6.3,14.1,14.1,14.1c7.8,0,14.1-6.3,14.1-14.1V14.1 C465.012,6.3,458.712,0,450.913,0z M423.813,416.5c0,30.5-51.3,63.3-127.6,63.3s-127.6-32.7-127.6-63.3v-24.3 c28,23.4,74.2,38.4,127.6,38.4s99.7-15,127.6-38.4V416.5z M423.813,339L423.813,339c0,30.6-51.3,63.3-127.6,63.3 s-127.6-32.7-127.6-63.3v-25.1c27.7,20.8,73.6,33.9,127.6,33.9c54.1,0,99.9-13.1,127.6-33.9V339z M423.812,265.6 c0,25.5-52.4,54-127.6,54s-127.6-28.4-127.6-54c0-25.6,52.4-54,127.6-54C371.413,211.7,423.812,240.1,423.812,265.6z"/> </g> </g> </g>
</svg>