<!DOCTYPE svg PUBLIC "-//W3C//DTD SVG 1.1//EN" "http://www.w3.org/Graphics/SVG/1.1/DTD/svg11.dtd">
<!-- Uploaded to: SVG Repo, www.svgrepo.com, Transformed by: SVG Repo Mixer Tools -->
<svg fill="#F7B600" height="64px" width="64px" version="1.1" id="Layer_1" xmlns="http://www.w3.org/2000/svg" xmlns:xlink="http://www.w3.org/1999/xlink" viewBox="0 0 511.999 511.999" xml:space="preserve">
<g id="SVGRepo_bgCarrier" stroke-width="0"/>
<g id="SVGRepo_tracerCarrier" stroke-linecap="round" stroke-linejoin="round"/>
<g id="SVGRepo_iconCarrier"> <g> <g> <path d="M462.318,188.09h-65.403L262.484,3.247c-3.148-4.33-9.819-4.33-12.968,0L115.084,188.09H49.681 c-13.263,0-24.053,10.791-24.053,24.053v214.872c0,4.429,3.59,8.018,8.018,8.018c4.428,0,8.018-3.589,8.018-8.018V289.646h334.065 c4.428,0,8.018-3.589,8.018-8.018s-3.59-8.018-8.018-8.018H41.664v-61.468c0-4.421,3.596-8.018,8.018-8.018h343.14 c0.006,0,0.012,0.001,0.018,0.001c0.004,0,0.009-0.001,0.014-0.001h69.465c4.421,0,8.018,3.596,8.018,8.018v61.468h-43.295 c-4.428,0-8.018,3.589-8.018,8.018s3.59,8.018,8.018,8.018h43.295v198.301c0,4.421-3.596,8.018-8.018,8.018H49.681 c-4.421,0-8.018-3.596-8.018-8.018v-18.173c0-4.429-3.59-8.018-8.018-8.018c-4.428,0-8.018,3.589-8.018,8.018v18.173 c0,13.262,10.789,24.053,24.053,24.053h412.637c13.263,0,24.053-10.791,24.053-24.053V212.143 C486.371,198.881,475.581,188.09,462.318,188.09z M134.911,188.09L256,21.593L377.088,188.09H134.911z"/> </g> </g> <g> <g> <path d="M119.167,213.746c-13.852,0-25.122,11.269-25.122,25.122c0,13.852,11.269,25.122,25.122,25.122 c13.852,0,25.122-11.269,25.122-25.122C144.288,225.016,133.019,213.746,119.167,213.746z M119.167,247.955 c-5.01,0-9.087-4.076-9.087-9.087s4.076-9.087,9.087-9.087c5.01,0,9.087,4.076,9.087,9.087 C128.253,243.879,124.177,247.955,119.167,247.955z"/> </g> </g> <g> <g> <path d="M392.833,213.746c-13.852,0-25.122,11.269-25.122,25.122c0,13.852,11.269,25.122,25.122,25.122 c13.852,0,25.122-11.269,25.122-25.122C417.954,225.016,406.685,213.746,392.833,213.746z M392.833,247.955 c-5.01,0-9.087-4.076-9.087-9.087s4.076-9.087,9.087-9.087s9.087,4.076,9.087,9.087S397.843,247.955,392.833,247.955z"/> </g> </g> <g> <g> <path d="M341.52,230.851H170.479c-4.428,0-8.018,3.589-8.018,8.018c0,4.429,3.59,8.018,8.018,8.018H341.52 c4.428,0,8.018-3.589,8.018-8.018C349.538,234.439,345.948,230.851,341.52,230.851z"/> </g> </g> <g> <g> <path d="M167.272,384.788h-2.138c-4.421,0-8.018-3.596-8.018-8.018v-2.138c0-4.421,3.596-8.018,8.018-8.018h18.173 c4.428,0,8.018-3.589,8.018-8.018c0-4.429-3.59-8.018-8.018-8.018h-18.173c-13.263,0-24.053,10.791-24.053,24.053v2.138 c0,13.262,10.789,24.053,24.053,24.053h2.138c4.421,0,8.018,3.596,8.018,8.018v2.138c0,4.421-3.596,8.018-8.018,8.018h-18.173 c-4.428,0-8.018,3.589-8.018,8.018s3.59,8.018,8.018,8.018h18.173c13.263,0,24.053-10.791,24.053-24.053v-2.138 C191.325,395.578,180.535,384.788,167.272,384.788z"/> </g> </g> <g> <g> <path d="M227.137,350.579h-2.138c-13.263,0-24.053,10.791-24.053,24.053v52.381c0,4.429,3.59,8.018,8.018,8.018 c4.428,0,8.018-3.589,8.018-8.018v-26.191h18.173v26.191c0,4.428,3.59,8.018,8.018,8.018c4.428,0,8.018-3.589,8.018-8.018v-52.381 C251.189,361.37,240.4,350.579,227.137,350.579z M235.154,384.788h-18.173v-10.156c0-4.421,3.596-8.018,8.018-8.018h2.138 c4.421,0,8.018,3.596,8.018,8.018V384.788z"/> </g> </g> <g> <g> <path d="M303.036,418.996h-26.191v-60.399c0-4.429-3.59-8.018-8.018-8.018c-4.428,0-8.018,3.589-8.018,8.018v68.416 c0,4.429,3.59,8.018,8.018,8.018h34.208c4.428,0,8.018-3.589,8.018-8.018S307.464,418.996,303.036,418.996z"/> </g> </g> <g> <g> <path d="M362.9,418.996H336.71v-18.173h9.087c4.428,0,8.018-3.589,8.018-8.018s-3.59-8.018-8.018-8.018h-9.087v-18.173H362.9 c4.428,0,8.018-3.589,8.018-8.018c0-4.429-3.59-8.018-8.018-8.018h-34.208c-4.428,0-8.018,3.589-8.018,8.018v68.416 c0,4.429,3.59,8.018,8.018,8.018H362.9c4.428,0,8.018-3.589,8.018-8.018S367.328,418.996,362.9,418.996z"/> </g> </g> </g>
</svg>