<!DOCTYPE svg PUBLIC "-//W3C//DTD SVG 1.1//EN" "http://www.w3.org/Graphics/SVG/1.1/DTD/svg11.dtd">
<!-- Uploaded to: SVG Repo, www.svgrepo.com, Transformed by: SVG Repo Mixer Tools -->
<svg fill="#eeb32b" version="1.1" id="Capa_1" xmlns="http://www.w3.org/2000/svg" xmlns:xlink="http://www.w3.org/1999/xlink" width="64px" height="64px" viewBox="0 0 284.268 284.268" xml:space="preserve">
<g id="SVGRepo_bgCarrier" stroke-width="0"/>
<g id="SVGRepo_tracerCarrier" stroke-linecap="round" stroke-linejoin="round"/>
<g id="SVGRepo_iconCarrier"> <g> <g> <path d="M261.661,133.511l19.684-35.675c3.026-5.479,3.717-11.808,1.993-17.807c-1.741-6.008-5.71-10.977-11.169-13.997 c-3.458-1.913-7.361-2.922-11.301-2.922c-4.936,0-9.668,1.559-13.559,4.312C226.665,26.445,184.667,0,137.761,0 C70.051,0,14.975,55.082,14.975,122.786c0,9.392,5.582,17.459,13.595,21.179c3.72-2.966,8.214-4.921,13.115-5.215 c1.876-0.475,3.666-0.693,5.431-0.693c2.681,0,5.2,0.588,7.623,1.432c4.335-4.254,7.046-10.157,7.046-16.708 c0-41.887,34.083-75.964,75.97-75.964c25.277,0,48.432,12.607,62.387,32.762c-6.449,1.468-12.081,5.609-15.336,11.529 c-3.026,5.479-3.717,11.799-1.994,17.807c1.742,6.008,5.711,10.971,11.182,13.994l23.953,13.208 c2.852,4.128,6.917,7.037,11.559,8.635c4.228-4.138,9.992-6.708,16.352-6.708c3.519,0,6.833,0.84,9.842,2.237 C258.046,138.423,260.147,136.222,261.661,133.511z M241.148,135.528c-0.072,0-0.144-0.024-0.216-0.024 c-1.213,0.366-2.475,0.619-3.795,0.619c-5.255,0-9.764-3.075-11.932-7.5l-26.337-14.532c-6.438-3.552-8.791-11.655-5.225-18.107 c3.549-6.461,11.68-8.788,18.104-5.239l7.284,4.017c-11.661-33.711-43.649-58.021-81.272-58.021 c-47.45,0-86.046,38.59-86.046,86.04c0,7.362-5.972,13.337-13.331,13.337c-7.362,0-13.331-5.975-13.331-13.337 c0-62.146,50.56-112.71,112.707-112.71c49.968,0,92.375,32.696,107.117,77.804l4.293-7.803c3.567-6.452,11.697-8.788,18.123-5.239 c6.437,3.561,8.791,11.67,5.224,18.113l-19.678,35.684C250.396,133.048,245.845,135.528,241.148,135.528z"/> <path d="M237.138,146.193c-2.679,0-5.2-0.595-7.62-1.43c-4.336,4.252-7.05,10.148-7.05,16.699 c0,41.896-34.083,75.967-75.967,75.967c-25.28,0-48.438-12.598-62.387-32.762c6.449-1.453,12.069-5.603,15.345-11.523 c3.014-5.482,3.72-11.812,1.981-17.811c-1.729-6.005-5.695-10.971-11.166-13.997L66.307,148.12 c-2.861-4.119-6.933-7.022-11.556-8.62c-4.23,4.135-9.992,6.705-16.354,6.705c-3.519,0-6.821-0.829-9.814-2.229 c-2.354,1.88-4.471,4.065-5.972,6.78L2.93,186.438c-3.027,5.476-3.732,11.793-1.994,17.804 c1.729,6.011,5.708,10.977,11.166,13.997c3.45,1.91,7.362,2.918,11.316,2.918c4.936,0,9.652-1.555,13.547-4.316 c20.641,40.977,62.63,67.428,109.536,67.428c67.71,0,122.786-55.076,122.786-122.793c0-9.373-5.585-17.438-13.571-21.163 c-3.818,3.06-8.431,5.047-13.456,5.28C240.5,146.001,238.807,146.193,237.138,146.193z M259.199,161.463 c0,62.156-50.561,112.71-112.704,112.71c-49.96,0-92.363-32.696-107.104-77.792l-4.309,7.801c-2.429,4.407-6.98,6.893-11.67,6.893 c-2.183,0-4.398-0.534-6.44-1.663c-6.449-3.555-8.791-11.667-5.236-18.11l19.693-35.681c2.447-4.431,7.046-6.857,11.769-6.833 c1.249-0.385,2.546-0.648,3.918-0.648c5.251,0,9.751,3.074,11.922,7.494l26.349,14.537c6.449,3.555,8.791,11.655,5.236,18.11 c-2.429,4.407-6.99,6.888-11.683,6.888c-2.176,0-4.383-0.528-6.425-1.657l-7.293-4.023c11.658,33.711,43.646,58.03,81.272,58.03 c47.45,0,86.043-38.599,86.043-86.049c0-7.35,5.975-13.33,13.33-13.33C253.23,148.139,259.199,154.107,259.199,161.463z"/> </g> </g> </g>
</svg>